<svg xmlns="http://www.w3.org/2000/svg" width="1200" height="630" viewBox="0 0 1200 630" role="img" aria-label="Guides by Dimasik">
  <defs>
    <linearGradient id="bg" x1="0%" y1="0%" x2="100%" y2="100%">
      <stop offset="0%" stop-color="#0f172a"/>
      <stop offset="100%" stop-color="#1e3a5f"/>
    </linearGradient>
  </defs>
  <rect width="1200" height="630" fill="url(#bg)"/>
  <rect x="72" y="72" width="80" height="80" rx="20" fill="#3b82f6"/>
  <path d="M92 132V98h10.5c7 0 11.2 3.5 11.2 9 0 3.8-2 6.5-5.2 7.8L118 132h-8.5l-7-11.2H98.5V132H92zm8-18h2.5c3 0 4.8-1.5 4.8-3.8S105.5 108 102.5 108H100v6zm20 18l12.5-30h8.5l-12.5 30H120z" fill="#fff"/>
  <text x="180" y="150" fill="#f8fafc" font-family="system-ui,Segoe UI,sans-serif" font-size="56" font-weight="700">Guides by Dimasik</text>
  <text x="180" y="220" fill="#94a3b8" font-family="system-ui,Segoe UI,sans-serif" font-size="32">UA property sale · Poland legalization</text>
  <text x="180" y="520" fill="#64748b" font-family="system-ui,Segoe UI,sans-serif" font-size="24">dpugovkin.github.io/guides</text>
</svg>
